<svg width="150" height="150" xmlns="http://www.w3.org/2000/svg">
 <!-- Created with SVG-edit - http://svg-edit.googlecode.com/ -->
 <g>
  <title>Layer 1</title>
  <circle stroke-dasharray="2,2" stroke="#6B6A36" id="svg_2" r="70" cy="75.00001" cx="75.00001" stroke-width="8" fill="#FFFD81"/>
  <g id="svg_2" transform="matrix(3.93671 0 0 3.93671 -1389.59 -5355.68)">
   <path id="svg_3" stroke="#6B6A36" fill="#fff" d="m370.82367,1373.56641l-0.99579,3.71655l-3.71631,0.99561l-5.10791,-5.10815l0.99579,-3.71655l3.71622,-0.99585l5.108,5.1084z"/>
   <path id="svg_4" stroke="#6B6A36" fill="none" d="m386.62128,1376.86865l-7.44351,1.62927l0.99991,7.92517l2.07379,-5.77722l4.29581,0.37048"/>
   <path id="svg_5" stroke="#6B6A36" fill="#fff" d="m369.96066,1379.06909c-1.5296,-1.52979 0.5257,-3.07666 1.80109,-1.80151l8.67041,8.67102c1.35782,1.35803 -0.63348,2.96899 -1.80109,1.80139l-8.67041,-8.6709z"/>
   <path id="svg_6" stroke="#6B6A36" fill="none" d="m377.90018,1393.88501l-5.01791,-6.42529l5.8511,0.55542l-6.55469,2.77771l0.5925,3.29578"/>
   <path id="svg_7" stroke="#6B6A36" fill="none" d="m370.36407,1379.60901l1.87009,-1.87024"/>
   <path id="svg_8" stroke="#6B6A36" fill="none" d="m372.14166,1380.979l1.87009,-1.87"/>
   <path id="svg_9" stroke="#6B6A36" fill="none" d="m373.73398,1382.53442l1.87009,-1.87"/>
   <path id="svg_10" stroke="#6B6A36" fill="none" d="m375.43747,1384.01587l1.87012,-1.87024"/>
   <path id="svg_11" stroke="#6B6A36" fill="none" d="m376.69656,1385.90454l1.87009,-1.87012"/>
   <path id="svg_12" stroke="#6B6A36" fill="none" d="m377.95569,1387.57092l1.87009,-1.87"/>
  </g>
 </g>
</svg>